<?xml version="1.0" standalone="no"?>
<!DOCTYPE svg PUBLIC "-//W3C//DTD SVG 20010904//EN"
 "http://www.w3.org/TR/2001/REC-SVG-20010904/DTD/svg10.dtd">
<svg version="1.0" xmlns="http://www.w3.org/2000/svg"
 width="512.000000pt" height="512.000000pt" viewBox="0 0 512.000000 512.000000"
 preserveAspectRatio="xMidYMid meet">
<metadata>
Created by potrace 1.14, written by Peter Selinger 2001-2017
</metadata>
<g transform="translate(0.000000,512.000000) scale(0.100000,-0.100000)"
fill="#000000" stroke="none">
<path d="M697 5114 c-1 -1 -35 -4 -75 -8 -279 -23 -525 -238 -597 -521 l-23
-90 2 -1950 c1 -1072 6 -1965 10 -1983 60 -264 254 -467 516 -538 61 -17 177
-18 2010 -18 1070 0 1966 3 1991 7 119 19 255 86 349 173 106 99 172 208 209
345 19 73 20 112 20 2016 1 1353 -2 1958 -10 1995 -27 137 -113 295 -203 374
-77 69 -100 84 -181 125 -154 76 -8 71 -2123 73 -1042 0 -1894 0 -1895 0z
m1627 -1394 l0 -925 -924 -3 c-563 -1 -926 2 -930 7 -3 5 -5 382 -5 838 l1
828 23 48 c26 54 90 111 141 125 22 6 342 9 865 9 l830 -2 -1 -925z m2176 909
c55 -25 95 -62 123 -114 22 -40 22 -41 22 -880 l0 -840 -927 -3 -928 -2 0 930
0 930 833 0 c812 -1 833 -1 877 -21z m-2184 -2312 c5 -4 8 -422 9 -927 0 -913
0 -920 -20 -921 -11 0 -388 0 -837 0 -786 -1 -818 0 -860 19 -55 24 -96 65
-121 122 -21 44 -21 61 -22 865 0 451 1 827 3 835 3 14 107 15 922 15 505 0
922 -4 926 -8z m2330 -817 c0 -490 -3 -839 -9 -860 -16 -61 -63 -116 -121
-145 l-55 -27 -793 1 c-436 0 -812 0 -835 0 l-43 1 0 928 0 928 928 -1 927 0
1 -825z"/>
<path d="M1314 4284 c-23 -8 -58 -32 -79 -52 -60 -60 -67 -85 -74 -264 -1 -16
-12 -18 -80 -18 -95 0 -151 -21 -202 -74 -95 -102 -76 -274 40 -348 51 -32 79
-39 174 -41 l69 -2 2 -85 c3 -97 21 -145 69 -191 45 -43 81 -60 143 -66 67 -7
128 14 176 61 59 58 75 113 78 262 0 18 7 20 80 22 127 4 193 40 236 129 46
94 31 194 -42 267 -48 47 -82 59 -181 64 -77 4 -93 7 -93 21 -3 120 -9 162
-34 208 -54 98 -179 146 -282 107z"/>
<path d="M3275 3929 c-87 -43 -135 -119 -135 -212 0 -66 26 -122 77 -168 68
-61 77 -62 504 -62 365 0 388 1 431 21 185 81 194 328 15 417 l-51 25 -400 0
c-379 -1 -403 -2 -441 -21z"/>
<path d="M1040 1940 c-143 -27 -230 -184 -175 -315 8 -21 56 -79 105 -130 50
-50 90 -95 90 -99 0 -5 -41 -50 -91 -100 -53 -52 -100 -109 -111 -133 -21 -47
-25 -121 -9 -172 37 -120 195 -187 312 -132 26 12 84 61 139 116 l94 94 106
-104 c85 -82 116 -106 151 -115 162 -45 304 63 301 228 -2 68 -33 120 -131
219 -50 51 -91 96 -91 100 0 4 40 48 90 98 100 102 120 139 120 217 -1 127
-100 227 -228 230 -73 2 -127 -29 -224 -125 -47 -48 -90 -87 -94 -87 -4 0 -46
39 -93 87 -107 108 -175 140 -261 123z"/>
<path d="M3315 1968 c-62 -14 -115 -56 -148 -118 -26 -49 -28 -63 -24 -120 6
-100 61 -171 157 -205 54 -19 778 -19 834 0 120 41 185 162 154 285 -13 49
-68 114 -122 143 -40 21 -50 22 -426 23 -212 0 -403 -3 -425 -8z"/>
<path d="M3310 1271 c-106 -33 -170 -118 -170 -225 1 -92 53 -170 140 -209 43
-20 63 -21 435 -21 432 0 439 1 504 62 49 47 72 92 76 150 6 99 -49 192 -138
232 -39 18 -71 19 -432 19 -214 0 -401 -4 -415 -8z"/>
</g>
</svg>
