<svg xmlns="http://www.w3.org/2000/svg" xml:space="preserve" style="fill-rule:evenodd;clip-rule:evenodd;stroke-linejoin:round;stroke-miterlimit:2" viewBox="0 0 88 72">
  <path d="M19.435 10.083c1.51.757 3.374.16 4.163-1.333l.008-.017a4.902 4.902 0 0 1 1-1.083c.792-.633 2.192-1.4 4.559-1.4 2.05 0 3.25.988 3.716 1.917.429.862.429 2.016-.716 3.166-.813.809-1.859 1.513-3.192 2.284-.401.231-.804.458-1.208.683-1 .563-2.134 1.196-3.138 1.854-3.154 2.059-6.225 5.046-6.896 10.55a3.14 3.14 0 0 0 3.1 3.504h15.625a3.139 3.139 0 0 0 3.125-3.125 3.14 3.14 0 0 0-3.125-3.125H25.198c.708-1.012 1.675-1.808 2.846-2.575.829-.541 1.633-.987 2.529-1.491.479-.267.987-.55 1.537-.867 1.455-.846 3.075-1.875 4.471-3.275 3.021-3.017 3.542-7.071 1.888-10.375C36.852 2.137 33.365 0 29.165 0c-3.884 0-6.646 1.317-8.459 2.767a11.131 11.131 0 0 0-2.446 2.725 5.54 5.54 0 0 0-.141.25l-.05.083-.017.042-.008.012v.008l-.009.009a3.14 3.14 0 0 0 1.4 4.191v-.004Zm38.375 1.309c-.562.525-1.666 1.108-3.645 1.108a3.14 3.14 0 0 0-3.125 3.125 3.14 3.14 0 0 0 3.125 3.125c1.975 0 3.083.583 3.645 1.108.563.525.792 1.18.75 1.834C58.498 22.788 57.385 25 53.123 25c-1.938 0-3.167-.571-3.867-1.037a4.382 4.382 0 0 1-.866-.759 3.14 3.14 0 0 0-4.292-.804c-2.433 1.563-.867 4.333-.867 4.333l.004.005.005.008.029.046.054.075.15.2a10.601 10.601 0 0 0 2.317 2.096c1.641 1.095 4.062 2.087 7.333 2.087 6.758 0 11.375-4.037 11.679-9.192a8.508 8.508 0 0 0-2.387-6.433 8.514 8.514 0 0 0 2.387-6.433C64.494 4.038 59.881 0 53.123 0c-3.271 0-5.692.992-7.333 2.088a10.572 10.572 0 0 0-2.317 2.095 9.47 9.47 0 0 0-.15.2l-.054.075-.029.046-.005.009-.004.004a3.128 3.128 0 0 0-.546 1.764 3.14 3.14 0 0 0 3.125 3.125 3.13 3.13 0 0 0 2.58-1.36c.254-.29.545-.545.866-.758.704-.467 1.929-1.038 3.867-1.038 4.262 0 5.375 2.212 5.442 3.308a2.276 2.276 0 0 1-.755 1.834Zm-9.379 11.875-.029-.046v.008l.017.017.004.008.008.008v.005Zm0-15.279-.029.041v-.008l.017-.017.004-.008.008-.008ZM12.477 3.746l.029.417v22.935a3.139 3.139 0 0 1-3.125 3.125 3.136 3.136 0 0 1-3.1-2.731l-.025-.425V8.508l-2.137.721A3.136 3.136 0 0 1 .327 7.654L.16 7.258a3.136 3.136 0 0 1 1.575-3.791l.396-.167 6.254-2.096c.321-.108.657-.163.996-.163a3.136 3.136 0 0 1 3.096 2.705Z" style="fill-rule:nonzero"/>
  <path id="numeric" d="M68.86 19.792h11.325a3.139 3.139 0 0 1 3.125 3.125v39.604a3.14 3.14 0 0 1-3.125 3.125H15.623a3.14 3.14 0 0 1-3.125-3.125V33.558a7.265 7.265 0 0 1-6.25.192v28.771c0 5.143 4.232 9.375 9.375 9.375h64.562c5.143 0 9.375-4.232 9.375-9.375V22.917c0-5.143-4.232-9.375-9.375-9.375h-11.8a12.509 12.509 0 0 1-.875 2.083 12.566 12.566 0 0 1 1.35 4.167Zm.93 33.333H26.04l-.425.029a3.136 3.136 0 0 0-2.699 3.096 3.14 3.14 0 0 0 3.124 3.125h43.75l.425-.029a3.137 3.137 0 0 0 2.699-3.096 3.14 3.14 0 0 0-3.124-3.125Zm1.041-10.417c0-2.285-1.881-4.166-4.166-4.166-2.286 0-4.167 1.881-4.167 4.166 0 2.286 1.881 4.167 4.167 4.167 2.285 0 4.166-1.881 4.166-4.167Zm-24.979 0c0-2.285-1.881-4.166-4.167-4.166-2.285 0-4.166 1.881-4.166 4.166 0 2.286 1.881 4.167 4.166 4.167 2.286 0 4.167-1.881 4.167-4.167Zm-12.5 0c0-2.285-1.881-4.166-4.167-4.166-2.285 0-4.166 1.881-4.166 4.166 0 2.286 1.881 4.167 4.166 4.167 2.286 0 4.167-1.881 4.167-4.167Zm25 0c0-2.285-1.881-4.166-4.167-4.166-2.285 0-4.166 1.881-4.166 4.166 0 2.286 1.881 4.167 4.166 4.167 2.286 0 4.167-1.881 4.167-4.167Zm18.708-12.5c0-2.285-1.88-4.166-4.166-4.166-2.286 0-4.167 1.881-4.167 4.166 0 2.286 1.881 4.167 4.167 4.167 2.286 0 4.166-1.881 4.166-4.167Z" style="fill-rule:nonzero"/>
  <path id="text" d="M13.656 7.257a3.046 3.046 0 0 0-2.865-2.024 3.044 3.044 0 0 0-2.834 1.942L.31 26.93a3.055 3.055 0 0 0-.193 1.066 3.054 3.054 0 0 0 3.04 3.039c1.24 0 2.361-.759 2.822-1.911l.662-1.711h7.72l.577 1.629a3.048 3.048 0 0 0 2.897 2.119 3.054 3.054 0 0 0 3.039-3.04c0-.379-.071-.755-.21-1.109L13.656 7.257Zm-1.453 14.078H8.994l1.671-4.325 1.538 4.325ZM22.898 8.272a3.054 3.054 0 0 1 3.039-3.039h6.641c.666 0 2.605-.006 4.41 1.003a6.655 6.655 0 0 1 2.635 2.674c.666 1.234.976 2.681.976 4.301 0 1.605-.35 2.957-.945 4.066.404.386.778.842 1.103 1.374.766 1.261 1.134 2.757 1.134 4.437 0 1.629-.392 3.076-1.155 4.292a7.305 7.305 0 0 1-2.76 2.547c-1.897 1.021-3.915 1.14-4.823 1.14h-7.216a3.054 3.054 0 0 1-3.039-3.04V8.272Zm9.629 6.838c.488.006.97-.109 1.404-.334a.945.945 0 0 0 .361-.365c.086-.155.228-.504.228-1.2 0-.848-.161-1.252-.246-1.41a.578.578 0 0 0-.249-.259c-.334-.185-.842-.231-1.52-.231h-3.528v3.799h3.553-.003Zm.629 6.079h-4.179v3.799h4.179c.516 0 1.349-.091 1.945-.413.197-.096.365-.243.486-.426.085-.131.228-.431.228-1.061 0-.79-.167-1.142-.243-1.276a.84.84 0 0 0-.38-.322c-.532-.262-1.276-.301-2.036-.301Zm25.11-15.054c2.097 1.028 3.672 2.945 4.72 5.848.119.33.18.679.18 1.03a3.054 3.054 0 0 1-3.04 3.04 3.048 3.048 0 0 1-2.86-2.009c-.662-1.839-1.352-2.292-1.677-2.45-.484-.237-1.064-.283-2.301-.283-.961 0-1.526.295-1.933.657-.471.419-.882 1.073-1.204 1.93-.285.79-.478 1.609-.577 2.443-.043.339-.07.68-.082 1.021v.037c0 1.611.03 3.51.641 5.072a3.951 3.951 0 0 0 1.134 1.663c.456.374 1.167.742 2.358.872.359.04 1.14.04 1.903-.243.671-.249 1.355-.717 1.829-1.763a3.044 3.044 0 0 1 2.792-1.837 3.053 3.053 0 0 1 3.039 3.039c0 .45-.1.896-.293 1.303-2.547 5.628-8.145 5.744-9.941 5.543-2.228-.249-4.085-1.015-5.55-2.224a10.008 10.008 0 0 1-2.927-4.134c-.93-2.364-1.112-4.96-1.064-7.476.018-.543.061-1.085.128-1.623.125-1.003.38-2.395.918-3.827.532-1.419 1.404-3.048 2.857-4.34 1.516-1.346 3.516-2.188 5.972-2.188h.14c1.088-.006 2.984-.009 4.838.899Z" style="fill-rule:nonzero"/>
</svg>
